<mxfile host="app.diagrams.net" agent="Mozilla/5.0 (Windows NT 10.0; Win64; x64) AppleWebKit/537.36 (KHTML, like Gecko) Chrome/128.0.0.0 Safari/537.36" version="24.7.16">
  <diagram name="Page-1" id="e3f1Dqgrf1a8P76aAlMA">
    <mxGraphModel dx="1456" dy="624" grid="0" gridSize="10" guides="1" tooltips="1" connect="1" arrows="1" fold="1" page="0" pageScale="1" pageWidth="827" pageHeight="1169" math="0" shadow="0">
      <root>
        <mxCell id="0" />
        <mxCell id="1" parent="0" />
        <mxCell id="mxWlD1gpJVSRjjz-gHa3-1" value="AWS Cloud" style="points=[[0,0],[0.25,0],[0.5,0],[0.75,0],[1,0],[1,0.25],[1,0.5],[1,0.75],[1,1],[0.75,1],[0.5,1],[0.25,1],[0,1],[0,0.75],[0,0.5],[0,0.25]];outlineConnect=0;gradientColor=none;html=1;whiteSpace=wrap;fontSize=12;fontStyle=0;container=1;pointerEvents=0;collapsible=0;recursiveResize=0;shape=mxgraph.aws4.group;grIcon=mxgraph.aws4.group_aws_cloud_alt;strokeColor=#232F3E;fillColor=none;verticalAlign=top;align=left;spacingLeft=30;fontColor=#232F3E;dashed=0;" vertex="1" parent="1">
          <mxGeometry x="34" y="36" width="878" height="556" as="geometry" />
        </mxCell>
        <mxCell id="mxWlD1gpJVSRjjz-gHa3-65" value="" style="endArrow=classic;html=1;rounded=0;exitX=0.956;exitY=0.864;exitDx=0;exitDy=0;exitPerimeter=0;jumpStyle=arc;" edge="1" parent="mxWlD1gpJVSRjjz-gHa3-1">
          <mxGeometry width="50" height="50" relative="1" as="geometry">
            <mxPoint x="635.9960000000001" y="448.876" as="sourcePoint" />
            <mxPoint x="226" y="448" as="targetPoint" />
          </mxGeometry>
        </mxCell>
        <mxCell id="mxWlD1gpJVSRjjz-gHa3-51" value="" style="rounded=0;whiteSpace=wrap;html=1;" vertex="1" parent="mxWlD1gpJVSRjjz-gHa3-1">
          <mxGeometry x="577" y="317" width="291" height="75" as="geometry" />
        </mxCell>
        <mxCell id="mxWlD1gpJVSRjjz-gHa3-2" value="" style="outlineConnect=0;dashed=0;verticalLabelPosition=bottom;verticalAlign=top;align=center;html=1;shape=mxgraph.aws3.ec2;fillColor=#F58534;gradientColor=none;" vertex="1" parent="mxWlD1gpJVSRjjz-gHa3-1">
          <mxGeometry x="75" y="62" width="54" height="63" as="geometry" />
        </mxCell>
        <mxCell id="mxWlD1gpJVSRjjz-gHa3-7" value="" style="sketch=0;points=[[0,0,0],[0.25,0,0],[0.5,0,0],[0.75,0,0],[1,0,0],[0,1,0],[0.25,1,0],[0.5,1,0],[0.75,1,0],[1,1,0],[0,0.25,0],[0,0.5,0],[0,0.75,0],[1,0.25,0],[1,0.5,0],[1,0.75,0]];outlineConnect=0;fontColor=#232F3E;fillColor=#8C4FFF;strokeColor=#ffffff;dashed=0;verticalLabelPosition=bottom;verticalAlign=top;align=center;html=1;fontSize=12;fontStyle=0;aspect=fixed;shape=mxgraph.aws4.resourceIcon;resIcon=mxgraph.aws4.managed_streaming_for_kafka;" vertex="1" parent="mxWlD1gpJVSRjjz-gHa3-1">
          <mxGeometry x="199" y="66" width="55" height="55" as="geometry" />
        </mxCell>
        <mxCell id="mxWlD1gpJVSRjjz-gHa3-8" value="" style="outlineConnect=0;dashed=0;verticalLabelPosition=bottom;verticalAlign=top;align=center;html=1;shape=mxgraph.aws3.ec2;fillColor=#F58534;gradientColor=none;" vertex="1" parent="mxWlD1gpJVSRjjz-gHa3-1">
          <mxGeometry x="611" y="62" width="54" height="63" as="geometry" />
        </mxCell>
        <mxCell id="mxWlD1gpJVSRjjz-gHa3-10" value="" style="sketch=0;pointerEvents=1;shadow=0;dashed=0;html=1;strokeColor=none;fillColor=#505050;labelPosition=center;verticalLabelPosition=bottom;verticalAlign=top;outlineConnect=0;align=center;shape=mxgraph.office.servers.server_farm;fillColor=#7FBA42;" vertex="1" parent="mxWlD1gpJVSRjjz-gHa3-1">
          <mxGeometry x="771" y="62" width="56" height="49" as="geometry" />
        </mxCell>
        <mxCell id="mxWlD1gpJVSRjjz-gHa3-14" value="" style="endArrow=none;html=1;rounded=0;entryX=0.5;entryY=1;entryDx=0;entryDy=0;entryPerimeter=0;" edge="1" parent="mxWlD1gpJVSRjjz-gHa3-1" source="mxWlD1gpJVSRjjz-gHa3-70" target="mxWlD1gpJVSRjjz-gHa3-2">
          <mxGeometry width="50" height="50" relative="1" as="geometry">
            <mxPoint x="102" y="401" as="sourcePoint" />
            <mxPoint x="93" y="182" as="targetPoint" />
          </mxGeometry>
        </mxCell>
        <mxCell id="mxWlD1gpJVSRjjz-gHa3-15" value="" style="endArrow=none;html=1;rounded=0;entryX=0.5;entryY=1;entryDx=0;entryDy=0;entryPerimeter=0;" edge="1" parent="mxWlD1gpJVSRjjz-gHa3-1">
          <mxGeometry width="50" height="50" relative="1" as="geometry">
            <mxPoint x="226" y="540" as="sourcePoint" />
            <mxPoint x="226" y="121" as="targetPoint" />
          </mxGeometry>
        </mxCell>
        <mxCell id="mxWlD1gpJVSRjjz-gHa3-16" value="" style="endArrow=none;html=1;rounded=0;entryX=0.5;entryY=1;entryDx=0;entryDy=0;entryPerimeter=0;jumpStyle=arc;" edge="1" parent="mxWlD1gpJVSRjjz-gHa3-1">
          <mxGeometry width="50" height="50" relative="1" as="geometry">
            <mxPoint x="354" y="542" as="sourcePoint" />
            <mxPoint x="356" y="125" as="targetPoint" />
          </mxGeometry>
        </mxCell>
        <mxCell id="mxWlD1gpJVSRjjz-gHa3-17" value="" style="endArrow=none;html=1;rounded=0;entryX=0.594;entryY=1.016;entryDx=0;entryDy=0;entryPerimeter=0;jumpStyle=arc;" edge="1" parent="mxWlD1gpJVSRjjz-gHa3-1" target="mxWlD1gpJVSRjjz-gHa3-22">
          <mxGeometry width="50" height="50" relative="1" as="geometry">
            <mxPoint x="479" y="542" as="sourcePoint" />
            <mxPoint x="477" y="118" as="targetPoint" />
          </mxGeometry>
        </mxCell>
        <mxCell id="mxWlD1gpJVSRjjz-gHa3-22" value="" style="sketch=0;outlineConnect=0;fontColor=#232F3E;gradientColor=none;fillColor=#C925D1;strokeColor=none;dashed=0;verticalLabelPosition=bottom;verticalAlign=top;align=center;html=1;fontSize=12;fontStyle=0;aspect=fixed;pointerEvents=1;shape=mxgraph.aws4.aurora_instance;" vertex="1" parent="mxWlD1gpJVSRjjz-gHa3-1">
          <mxGeometry x="441" y="65" width="64" height="64" as="geometry" />
        </mxCell>
        <mxCell id="mxWlD1gpJVSRjjz-gHa3-23" value="" style="outlineConnect=0;dashed=0;verticalLabelPosition=bottom;verticalAlign=top;align=center;html=1;shape=mxgraph.aws3.s3;fillColor=#E05243;gradientColor=none;" vertex="1" parent="mxWlD1gpJVSRjjz-gHa3-1">
          <mxGeometry x="322" y="58" width="67" height="71" as="geometry" />
        </mxCell>
        <mxCell id="mxWlD1gpJVSRjjz-gHa3-24" value="" style="endArrow=none;html=1;rounded=0;entryX=0.5;entryY=1;entryDx=0;entryDy=0;entryPerimeter=0;" edge="1" parent="mxWlD1gpJVSRjjz-gHa3-1" source="mxWlD1gpJVSRjjz-gHa3-62" target="mxWlD1gpJVSRjjz-gHa3-8">
          <mxGeometry width="50" height="50" relative="1" as="geometry">
            <mxPoint x="632" y="541" as="sourcePoint" />
            <mxPoint x="597" y="128" as="targetPoint" />
          </mxGeometry>
        </mxCell>
        <mxCell id="mxWlD1gpJVSRjjz-gHa3-26" value="" style="endArrow=classic;html=1;rounded=0;flowAnimation=1;" edge="1" parent="mxWlD1gpJVSRjjz-gHa3-1">
          <mxGeometry width="50" height="50" relative="1" as="geometry">
            <mxPoint x="-26" y="151" as="sourcePoint" />
            <mxPoint x="100" y="151" as="targetPoint" />
          </mxGeometry>
        </mxCell>
        <mxCell id="mxWlD1gpJVSRjjz-gHa3-27" value="" style="endArrow=classic;html=1;rounded=0;flowAnimation=1;" edge="1" parent="mxWlD1gpJVSRjjz-gHa3-1">
          <mxGeometry width="50" height="50" relative="1" as="geometry">
            <mxPoint x="105" y="166" as="sourcePoint" />
            <mxPoint x="224" y="164" as="targetPoint" />
          </mxGeometry>
        </mxCell>
        <mxCell id="mxWlD1gpJVSRjjz-gHa3-28" value="" style="endArrow=classic;html=1;rounded=0;jumpStyle=arc;flowAnimation=1;" edge="1" parent="mxWlD1gpJVSRjjz-gHa3-1">
          <mxGeometry width="50" height="50" relative="1" as="geometry">
            <mxPoint x="107" y="183" as="sourcePoint" />
            <mxPoint x="353" y="180" as="targetPoint" />
          </mxGeometry>
        </mxCell>
        <mxCell id="mxWlD1gpJVSRjjz-gHa3-29" value="" style="endArrow=classic;html=1;rounded=0;jumpStyle=arc;flowAnimation=1;exitX=0.13;exitY=0.364;exitDx=0;exitDy=0;exitPerimeter=0;" edge="1" parent="mxWlD1gpJVSRjjz-gHa3-1" source="mxWlD1gpJVSRjjz-gHa3-70">
          <mxGeometry width="50" height="50" relative="1" as="geometry">
            <mxPoint x="107" y="203" as="sourcePoint" />
            <mxPoint x="478" y="199" as="targetPoint" />
          </mxGeometry>
        </mxCell>
        <mxCell id="mxWlD1gpJVSRjjz-gHa3-30" value="" style="endArrow=none;html=1;rounded=0;jumpStyle=arc;flowAnimation=1;startArrow=classic;startFill=1;endFill=0;" edge="1" parent="mxWlD1gpJVSRjjz-gHa3-1">
          <mxGeometry width="50" height="50" relative="1" as="geometry">
            <mxPoint x="226" y="248" as="sourcePoint" />
            <mxPoint x="631.9969999999998" y="250.12599999999998" as="targetPoint" />
          </mxGeometry>
        </mxCell>
        <mxCell id="mxWlD1gpJVSRjjz-gHa3-31" value="" style="endArrow=none;html=1;rounded=0;jumpStyle=arc;flowAnimation=1;startArrow=classic;startFill=1;endFill=0;" edge="1" parent="mxWlD1gpJVSRjjz-gHa3-1">
          <mxGeometry width="50" height="50" relative="1" as="geometry">
            <mxPoint x="358" y="271" as="sourcePoint" />
            <mxPoint x="632.9949999999999" y="270.991" as="targetPoint" />
          </mxGeometry>
        </mxCell>
        <mxCell id="mxWlD1gpJVSRjjz-gHa3-32" value="" style="endArrow=none;html=1;rounded=0;startArrow=classic;startFill=1;endFill=0;flowAnimation=1;" edge="1" parent="mxWlD1gpJVSRjjz-gHa3-1">
          <mxGeometry width="50" height="50" relative="1" as="geometry">
            <mxPoint x="480" y="291" as="sourcePoint" />
            <mxPoint x="631" y="291" as="targetPoint" />
          </mxGeometry>
        </mxCell>
        <mxCell id="mxWlD1gpJVSRjjz-gHa3-33" value="" style="endArrow=classic;html=1;rounded=0;entryX=0.25;entryY=1;entryDx=0;entryDy=0;exitX=0.029;exitY=0;exitDx=0;exitDy=0;exitPerimeter=0;flowAnimation=1;" edge="1" parent="mxWlD1gpJVSRjjz-gHa3-1" source="mxWlD1gpJVSRjjz-gHa3-62" target="mxWlD1gpJVSRjjz-gHa3-46">
          <mxGeometry width="50" height="50" relative="1" as="geometry">
            <mxPoint x="670" y="165" as="sourcePoint" />
            <mxPoint x="677" y="160.28205128205127" as="targetPoint" />
          </mxGeometry>
        </mxCell>
        <mxCell id="mxWlD1gpJVSRjjz-gHa3-34" value="" style="pointerEvents=1;verticalLabelPosition=bottom;shadow=0;dashed=0;align=center;html=1;verticalAlign=top;shape=mxgraph.electrical.electro-mechanical.circuitBreaker2;elSwitchState=off;" vertex="1" parent="mxWlD1gpJVSRjjz-gHa3-1">
          <mxGeometry x="637" y="413" width="160" height="20" as="geometry" />
        </mxCell>
        <mxCell id="mxWlD1gpJVSRjjz-gHa3-36" value="" style="endArrow=none;html=1;rounded=0;entryX=0.594;entryY=1.016;entryDx=0;entryDy=0;entryPerimeter=0;" edge="1" parent="mxWlD1gpJVSRjjz-gHa3-1" source="mxWlD1gpJVSRjjz-gHa3-52">
          <mxGeometry width="50" height="50" relative="1" as="geometry">
            <mxPoint x="799" y="541" as="sourcePoint" />
            <mxPoint x="799.0539999999999" y="295.004" as="targetPoint" />
          </mxGeometry>
        </mxCell>
        <mxCell id="mxWlD1gpJVSRjjz-gHa3-35" value="" style="sketch=0;pointerEvents=1;shadow=0;dashed=0;html=1;strokeColor=none;fillColor=#505050;labelPosition=center;verticalLabelPosition=bottom;verticalAlign=top;outlineConnect=0;align=center;shape=mxgraph.office.servers.server_farm;fillColor=#7FBA42;" vertex="1" parent="mxWlD1gpJVSRjjz-gHa3-1">
          <mxGeometry x="771" y="250" width="56" height="49" as="geometry" />
        </mxCell>
        <mxCell id="mxWlD1gpJVSRjjz-gHa3-39" value="" style="endArrow=none;html=1;rounded=0;entryX=0.594;entryY=1.016;entryDx=0;entryDy=0;entryPerimeter=0;" edge="1" parent="mxWlD1gpJVSRjjz-gHa3-1" source="mxWlD1gpJVSRjjz-gHa3-35" target="mxWlD1gpJVSRjjz-gHa3-38">
          <mxGeometry width="50" height="50" relative="1" as="geometry">
            <mxPoint x="746" y="268" as="sourcePoint" />
            <mxPoint x="748" y="148" as="targetPoint" />
          </mxGeometry>
        </mxCell>
        <mxCell id="mxWlD1gpJVSRjjz-gHa3-38" value="" style="image;aspect=fixed;html=1;points=[];align=center;fontSize=12;image=img/lib/azure2/general/Globe_Error.svg;" vertex="1" parent="mxWlD1gpJVSRjjz-gHa3-1">
          <mxGeometry x="783.95" y="252" width="33.1" height="39" as="geometry" />
        </mxCell>
        <mxCell id="mxWlD1gpJVSRjjz-gHa3-45" value="" style="endArrow=none;html=1;rounded=0;entryX=0.5;entryY=1;entryDx=0;entryDy=0;entryPerimeter=0;" edge="1" parent="mxWlD1gpJVSRjjz-gHa3-1">
          <mxGeometry width="50" height="50" relative="1" as="geometry">
            <mxPoint x="798.98" y="250" as="sourcePoint" />
            <mxPoint x="798.5" y="114" as="targetPoint" />
          </mxGeometry>
        </mxCell>
        <mxCell id="mxWlD1gpJVSRjjz-gHa3-46" value="" style="rounded=0;whiteSpace=wrap;html=1;direction=south;fillColor=#dae8fc;strokeColor=#6c8ebf;" vertex="1" parent="mxWlD1gpJVSRjjz-gHa3-1">
          <mxGeometry x="795" y="155.75" width="11" height="24.25" as="geometry" />
        </mxCell>
        <mxCell id="mxWlD1gpJVSRjjz-gHa3-52" value="" style="rounded=0;whiteSpace=wrap;html=1;direction=south;fillColor=#dae8fc;strokeColor=#6c8ebf;" vertex="1" parent="mxWlD1gpJVSRjjz-gHa3-1">
          <mxGeometry x="795" y="332" width="11" height="24.25" as="geometry" />
        </mxCell>
        <mxCell id="mxWlD1gpJVSRjjz-gHa3-58" value="" style="endArrow=classic;html=1;rounded=0;entryX=0.25;entryY=1;entryDx=0;entryDy=0;flowAnimation=1;" edge="1" parent="mxWlD1gpJVSRjjz-gHa3-1">
          <mxGeometry width="50" height="50" relative="1" as="geometry">
            <mxPoint x="637" y="338" as="sourcePoint" />
            <mxPoint x="792" y="338" as="targetPoint" />
          </mxGeometry>
        </mxCell>
        <mxCell id="mxWlD1gpJVSRjjz-gHa3-59" value="" style="endArrow=none;html=1;rounded=0;entryX=0.5;entryY=1;entryDx=0;entryDy=0;entryPerimeter=0;" edge="1" parent="mxWlD1gpJVSRjjz-gHa3-1">
          <mxGeometry width="50" height="50" relative="1" as="geometry">
            <mxPoint x="800" y="546" as="sourcePoint" />
            <mxPoint x="800" y="356.25" as="targetPoint" />
          </mxGeometry>
        </mxCell>
        <mxCell id="mxWlD1gpJVSRjjz-gHa3-61" value="loop" style="rounded=0;whiteSpace=wrap;html=1;fillColor=#ffe6cc;strokeColor=#d79b00;" vertex="1" parent="mxWlD1gpJVSRjjz-gHa3-1">
          <mxGeometry x="577" y="317" width="48" height="22" as="geometry" />
        </mxCell>
        <mxCell id="mxWlD1gpJVSRjjz-gHa3-62" value="" style="rounded=0;whiteSpace=wrap;html=1;direction=south;fillColor=#dae8fc;strokeColor=#6c8ebf;" vertex="1" parent="mxWlD1gpJVSRjjz-gHa3-1">
          <mxGeometry x="632.5" y="153" width="11" height="321" as="geometry" />
        </mxCell>
        <mxCell id="mxWlD1gpJVSRjjz-gHa3-63" value="" style="endArrow=none;html=1;rounded=0;entryX=0.5;entryY=1;entryDx=0;entryDy=0;entryPerimeter=0;" edge="1" parent="mxWlD1gpJVSRjjz-gHa3-1">
          <mxGeometry width="50" height="50" relative="1" as="geometry">
            <mxPoint x="639" y="545" as="sourcePoint" />
            <mxPoint x="638.5" y="474.005" as="targetPoint" />
          </mxGeometry>
        </mxCell>
        <mxCell id="mxWlD1gpJVSRjjz-gHa3-68" value="" style="shape=image;html=1;verticalAlign=top;verticalLabelPosition=bottom;labelBackgroundColor=#ffffff;imageAspect=0;aspect=fixed;image=https://cdn2.iconfinder.com/data/icons/woothemes/PNG/no_entry.png" vertex="1" parent="mxWlD1gpJVSRjjz-gHa3-1">
          <mxGeometry x="403" y="435" width="29" height="29" as="geometry" />
        </mxCell>
        <mxCell id="mxWlD1gpJVSRjjz-gHa3-71" value="" style="endArrow=none;html=1;rounded=0;entryX=0.5;entryY=1;entryDx=0;entryDy=0;entryPerimeter=0;" edge="1" parent="mxWlD1gpJVSRjjz-gHa3-1">
          <mxGeometry width="50" height="50" relative="1" as="geometry">
            <mxPoint x="101" y="539" as="sourcePoint" />
            <mxPoint x="101" y="482" as="targetPoint" />
          </mxGeometry>
        </mxCell>
        <mxCell id="mxWlD1gpJVSRjjz-gHa3-70" value="" style="rounded=0;whiteSpace=wrap;html=1;direction=south;fillColor=#dae8fc;strokeColor=#6c8ebf;" vertex="1" parent="mxWlD1gpJVSRjjz-gHa3-1">
          <mxGeometry x="95" y="161" width="11" height="321" as="geometry" />
        </mxCell>
        <mxCell id="mxWlD1gpJVSRjjz-gHa3-73" value="&lt;b&gt;circuit closed&lt;/b&gt;" style="rounded=1;whiteSpace=wrap;html=1;fillColor=#e1d5e7;strokeColor=#9673a6;" vertex="1" parent="mxWlD1gpJVSRjjz-gHa3-1">
          <mxGeometry x="657" y="190" width="120" height="18" as="geometry" />
        </mxCell>
        <mxCell id="mxWlD1gpJVSRjjz-gHa3-74" value="&lt;b&gt;circuit open&lt;/b&gt;" style="rounded=1;whiteSpace=wrap;html=1;fillColor=#f8cecc;strokeColor=#b85450;" vertex="1" parent="mxWlD1gpJVSRjjz-gHa3-1">
          <mxGeometry x="654.5" y="449.5" width="120" height="18" as="geometry" />
        </mxCell>
        <mxCell id="mxWlD1gpJVSRjjz-gHa3-75" value="&lt;b&gt;retry + interval&lt;/b&gt;" style="rounded=1;whiteSpace=wrap;html=1;fillColor=#e1d5e7;strokeColor=#9673a6;" vertex="1" parent="mxWlD1gpJVSRjjz-gHa3-1">
          <mxGeometry x="660" y="345.5" width="120" height="18" as="geometry" />
        </mxCell>
        <mxCell id="mxWlD1gpJVSRjjz-gHa3-76" value="&lt;b&gt;consumer paused&lt;/b&gt;" style="rounded=1;whiteSpace=wrap;html=1;fillColor=#f8cecc;strokeColor=#b85450;" vertex="1" parent="mxWlD1gpJVSRjjz-gHa3-1">
          <mxGeometry x="357.5" y="466" width="120" height="18" as="geometry" />
        </mxCell>
        <mxCell id="mxWlD1gpJVSRjjz-gHa3-77" value="&lt;b&gt;manual ack.&lt;/b&gt;" style="rounded=1;whiteSpace=wrap;html=1;fillColor=#e1d5e7;strokeColor=#9673a6;" vertex="1" parent="mxWlD1gpJVSRjjz-gHa3-1">
          <mxGeometry x="228" y="262.5" width="120" height="18" as="geometry" />
        </mxCell>
        <mxCell id="mxWlD1gpJVSRjjz-gHa3-79" value="&lt;b&gt;persist failed items to DB&lt;/b&gt;" style="rounded=1;whiteSpace=wrap;html=1;fillColor=#e1d5e7;strokeColor=#9673a6;" vertex="1" parent="mxWlD1gpJVSRjjz-gHa3-1">
          <mxGeometry x="496" y="474" width="120" height="29" as="geometry" />
        </mxCell>
        <mxCell id="mxWlD1gpJVSRjjz-gHa3-80" value="&lt;b&gt;EC2&lt;/b&gt;&lt;div&gt;&lt;b&gt;Server A&lt;/b&gt;&lt;/div&gt;" style="text;html=1;align=center;verticalAlign=middle;resizable=0;points=[];autosize=1;strokeColor=none;fillColor=none;" vertex="1" parent="mxWlD1gpJVSRjjz-gHa3-1">
          <mxGeometry x="67.5" y="25" width="67" height="41" as="geometry" />
        </mxCell>
        <mxCell id="mxWlD1gpJVSRjjz-gHa3-83" value="&lt;b&gt;AWS&lt;/b&gt;&lt;div&gt;&lt;b&gt;S3&lt;/b&gt;&lt;/div&gt;" style="text;html=1;align=center;verticalAlign=middle;resizable=0;points=[];autosize=1;strokeColor=none;fillColor=none;" vertex="1" parent="mxWlD1gpJVSRjjz-gHa3-1">
          <mxGeometry x="333" y="17" width="45" height="41" as="geometry" />
        </mxCell>
        <mxCell id="mxWlD1gpJVSRjjz-gHa3-84" value="&lt;b&gt;AWS&lt;/b&gt;&lt;div&gt;&lt;b&gt;Aurora&lt;/b&gt;&lt;/div&gt;" style="text;html=1;align=center;verticalAlign=middle;resizable=0;points=[];autosize=1;strokeColor=none;fillColor=none;" vertex="1" parent="mxWlD1gpJVSRjjz-gHa3-1">
          <mxGeometry x="446" y="21" width="57" height="41" as="geometry" />
        </mxCell>
        <mxCell id="mxWlD1gpJVSRjjz-gHa3-85" value="&lt;b&gt;EC2&lt;/b&gt;&lt;div&gt;&lt;b&gt;Server B&lt;/b&gt;&lt;/div&gt;" style="text;html=1;align=center;verticalAlign=middle;resizable=0;points=[];autosize=1;strokeColor=none;fillColor=none;" vertex="1" parent="mxWlD1gpJVSRjjz-gHa3-1">
          <mxGeometry x="604" y="24" width="67" height="41" as="geometry" />
        </mxCell>
        <mxCell id="mxWlD1gpJVSRjjz-gHa3-86" value="&lt;b&gt;External&lt;/b&gt;" style="text;html=1;align=center;verticalAlign=middle;resizable=0;points=[];autosize=1;strokeColor=none;fillColor=none;" vertex="1" parent="mxWlD1gpJVSRjjz-gHa3-1">
          <mxGeometry x="768" y="39" width="65" height="26" as="geometry" />
        </mxCell>
        <mxCell id="mxWlD1gpJVSRjjz-gHa3-87" value="&lt;b&gt;Input&lt;/b&gt;" style="rounded=1;whiteSpace=wrap;html=1;fillColor=#e1d5e7;strokeColor=#9673a6;" vertex="1" parent="mxWlD1gpJVSRjjz-gHa3-1">
          <mxGeometry x="12" y="161" width="68" height="18" as="geometry" />
        </mxCell>
        <mxCell id="mxWlD1gpJVSRjjz-gHa3-50" value="" style="endArrow=classic;html=1;rounded=0;dashed=1;entryX=0.075;entryY=-0.045;entryDx=0;entryDy=0;entryPerimeter=0;flowAnimation=1;" edge="1" parent="1" target="mxWlD1gpJVSRjjz-gHa3-62">
          <mxGeometry width="50" height="50" relative="1" as="geometry">
            <mxPoint x="827" y="213" as="sourcePoint" />
            <mxPoint x="697" y="213" as="targetPoint" />
          </mxGeometry>
        </mxCell>
        <mxCell id="mxWlD1gpJVSRjjz-gHa3-78" value="" style="endArrow=classic;html=1;rounded=0;flowAnimation=1;" edge="1" parent="1">
          <mxGeometry width="50" height="50" relative="1" as="geometry">
            <mxPoint x="666" y="500" as="sourcePoint" />
            <mxPoint x="515" y="500" as="targetPoint" />
          </mxGeometry>
        </mxCell>
        <mxCell id="mxWlD1gpJVSRjjz-gHa3-81" value="&lt;b&gt;AWS&lt;/b&gt;&lt;div&gt;&lt;b&gt;MSK&lt;/b&gt;&lt;/div&gt;" style="text;html=1;align=center;verticalAlign=middle;resizable=0;points=[];autosize=1;strokeColor=none;fillColor=none;" vertex="1" parent="1">
          <mxGeometry x="238" y="60" width="45" height="41" as="geometry" />
        </mxCell>
      </root>
    </mxGraphModel>
  </diagram>
</mxfile>
